<svg id="visual" viewBox="0 0 900 600" width="900" height="600" xmlns="http://www.w3.org/2000/svg" xmlns:xlink="http://www.w3.org/1999/xlink" version="1.1"><rect x="0" y="0" width="900" height="600" fill="#001220"></rect><defs><linearGradient id="grad1_0" x1="33.3%" y1="100%" x2="100%" y2="0%"><stop offset="20%" stop-color="#304369" stop-opacity="1"></stop><stop offset="80%" stop-color="#304369" stop-opacity="1"></stop></linearGradient></defs><defs><linearGradient id="grad1_1" x1="33.3%" y1="100%" x2="100%" y2="0%"><stop offset="20%" stop-color="#304369" stop-opacity="1"></stop><stop offset="80%" stop-color="#001220" stop-opacity="1"></stop></linearGradient></defs><defs><linearGradient id="grad2_0" x1="0%" y1="100%" x2="66.7%" y2="0%"><stop offset="20%" stop-color="#304369" stop-opacity="1"></stop><stop offset="80%" stop-color="#304369" stop-opacity="1"></stop></linearGradient></defs><defs><linearGradient id="grad2_1" x1="0%" y1="100%" x2="66.7%" y2="0%"><stop offset="20%" stop-color="#001220" stop-opacity="1"></stop><stop offset="80%" stop-color="#304369" stop-opacity="1"></stop></linearGradient></defs><g transform="translate(900, 600)"><path d="M-459.7 0C-437.6 -51.9 -415.5 -103.8 -398.2 -164.9C-380.9 -226 -368.5 -296.3 -325.1 -325.1C-281.6 -353.8 -207.1 -341.1 -147.7 -356.6C-88.4 -372.1 -44.2 -415.9 0 -459.7L0 0Z" fill="#152a43"></path><path d="M-229.9 0C-218.8 -26 -207.7 -51.9 -199.1 -82.5C-190.5 -113 -184.3 -148.1 -162.5 -162.5C-140.8 -176.9 -103.5 -170.5 -73.9 -178.3C-44.2 -186.1 -22.1 -208 0 -229.9L0 0Z" fill="#304369"></path></g><g transform="translate(0, 0)"><path d="M459.7 0C412.2 43.7 364.8 87.3 348.3 144.3C331.8 201.2 346.4 271.5 322.4 322.4C298.5 373.4 236.1 405.1 175.9 424.7C115.8 444.4 57.9 452 0 459.7L0 0Z" fill="#152a43"></path><path d="M229.9 0C206.1 21.8 182.4 43.7 174.2 72.1C165.9 100.6 173.2 135.7 161.2 161.2C149.3 186.7 118 202.5 88 212.4C57.9 222.2 28.9 226 0 229.9L0 0Z" fill="#304369"></path></g></svg>