<svg id="visual" viewBox="0 0 900 600" width="900" height="600" xmlns="http://www.w3.org/2000/svg" xmlns:xlink="http://www.w3.org/1999/xlink" version="1.1"><rect x="0" y="0" width="900" height="600" fill="#001220"></rect><defs><linearGradient id="grad1_0" x1="33.3%" y1="100%" x2="100%" y2="0%"><stop offset="20%" stop-color="#001220" stop-opacity="1"></stop><stop offset="80%" stop-color="#001220" stop-opacity="1"></stop></linearGradient></defs><defs><linearGradient id="grad2_0" x1="0%" y1="100%" x2="66.7%" y2="0%"><stop offset="20%" stop-color="#001220" stop-opacity="1"></stop><stop offset="80%" stop-color="#001220" stop-opacity="1"></stop></linearGradient></defs><g transform="translate(900, 600)"><path d="M-486.7 0C-440.9 -46.8 -395.1 -93.7 -378.8 -156.9C-362.4 -220.1 -375.5 -299.8 -344.2 -344.2C-312.8 -388.6 -237 -397.9 -172.2 -415.7C-107.4 -433.6 -53.7 -460.2 0 -486.7L0 0Z" fill="#304369"></path></g><g transform="translate(0, 0)"><path d="M486.7 0C460 54.1 433.2 108.3 414.8 171.8C396.5 235.4 386.6 308.3 344.2 344.2C301.8 380 226.9 378.8 164.2 396.3C101.4 413.9 50.7 450.3 0 486.7L0 0Z" fill="#304369"></path></g></svg>