<svg id="visual" viewBox="0 0 900 450" width="900" height="450" xmlns="http://www.w3.org/2000/svg" xmlns:xlink="http://www.w3.org/1999/xlink" version="1.1"><path d="M0 172L21.5 166.5C43 161 86 150 128.8 139.2C171.7 128.3 214.3 117.7 257.2 107.8C300 98 343 89 385.8 90.8C428.7 92.7 471.3 105.3 514.2 106.7C557 108 600 98 642.8 104.3C685.7 110.7 728.3 133.3 771.2 148.3C814 163.3 857 170.7 878.5 174.3L900 178L900 451L878.5 451C857 451 814 451 771.2 451C728.3 451 685.7 451 642.8 451C600 451 557 451 514.2 451C471.3 451 428.7 451 385.8 451C343 451 300 451 257.2 451C214.3 451 171.7 451 128.8 451C86 451 43 451 21.5 451L0 451Z" fill="#051636"></path><path d="M0 183L21.5 182.7C43 182.3 86 181.7 128.8 182.2C171.7 182.7 214.3 184.3 257.2 187.5C300 190.7 343 195.3 385.8 203.8C428.7 212.3 471.3 224.7 514.2 225.3C557 226 600 215 642.8 207.8C685.7 200.7 728.3 197.3 771.2 187.3C814 177.3 857 160.7 878.5 152.3L900 144L900 451L878.5 451C857 451 814 451 771.2 451C728.3 451 685.7 451 642.8 451C600 451 557 451 514.2 451C471.3 451 428.7 451 385.8 451C343 451 300 451 257.2 451C214.3 451 171.7 451 128.8 451C86 451 43 451 21.5 451L0 451Z" fill="#203255"></path><path d="M0 241L21.5 245.7C43 250.3 86 259.7 128.8 259.7C171.7 259.7 214.3 250.3 257.2 245.5C300 240.7 343 240.3 385.8 238.8C428.7 237.3 471.3 234.7 514.2 235.8C557 237 600 242 642.8 244.7C685.7 247.3 728.3 247.7 771.2 248.8C814 250 857 252 878.5 253L900 254L900 451L878.5 451C857 451 814 451 771.2 451C728.3 451 685.7 451 642.8 451C600 451 557 451 514.2 451C471.3 451 428.7 451 385.8 451C343 451 300 451 257.2 451C214.3 451 171.7 451 128.8 451C86 451 43 451 21.5 451L0 451Z" fill="#304369"></path><path d="M0 304L21.5 309.8C43 315.7 86 327.3 128.8 323C171.7 318.7 214.3 298.3 257.2 292.3C300 286.3 343 294.7 385.8 304.2C428.7 313.7 471.3 324.3 514.2 327.8C557 331.3 600 327.7 642.8 319.8C685.7 312 728.3 300 771.2 295.5C814 291 857 294 878.5 295.5L900 297L900 451L878.5 451C857 451 814 451 771.2 451C728.3 451 685.7 451 642.8 451C600 451 557 451 514.2 451C471.3 451 428.7 451 385.8 451C343 451 300 451 257.2 451C214.3 451 171.7 451 128.8 451C86 451 43 451 21.5 451L0 451Z" fill="#203255"></path><path d="M0 364L21.5 365C43 366 86 368 128.8 372.7C171.7 377.3 214.3 384.7 257.2 382.2C300 379.7 343 367.3 385.8 367.8C428.7 368.3 471.3 381.7 514.2 385.3C557 389 600 383 642.8 380C685.7 377 728.3 377 771.2 377.2C814 377.3 857 377.7 878.5 377.8L900 378L900 451L878.5 451C857 451 814 451 771.2 451C728.3 451 685.7 451 642.8 451C600 451 557 451 514.2 451C471.3 451 428.7 451 385.8 451C343 451 300 451 257.2 451C214.3 451 171.7 451 128.8 451C86 451 43 451 21.5 451L0 451Z" fill="#051636"></path></svg>