<svg id="visual" viewBox="0 0 900 450" width="900" height="450" xmlns="http://www.w3.org/2000/svg" xmlns:xlink="http://www.w3.org/1999/xlink" version="1.1"><path d="M0 271L21.5 287C43 303 86 335 128.8 329C171.7 323 214.3 279 257.2 277.5C300 276 343 317 385.8 320C428.7 323 471.3 288 514.2 266.8C557 245.7 600 238.3 642.8 249.3C685.7 260.3 728.3 289.7 771.2 312.5C814 335.3 857 351.7 878.5 359.8L900 368L900 0L878.5 0C857 0 814 0 771.2 0C728.3 0 685.7 0 642.8 0C600 0 557 0 514.2 0C471.3 0 428.7 0 385.8 0C343 0 300 0 257.2 0C214.3 0 171.7 0 128.8 0C86 0 43 0 21.5 0L0 0Z" fill="#051636"></path><path d="M0 160L21.5 176.3C43 192.7 86 225.3 128.8 239.3C171.7 253.3 214.3 248.7 257.2 240.3C300 232 343 220 385.8 207.2C428.7 194.3 471.3 180.7 514.2 174.5C557 168.3 600 169.7 642.8 186.2C685.7 202.7 728.3 234.3 771.2 234.2C814 234 857 202 878.5 186L900 170L900 0L878.5 0C857 0 814 0 771.2 0C728.3 0 685.7 0 642.8 0C600 0 557 0 514.2 0C471.3 0 428.7 0 385.8 0C343 0 300 0 257.2 0C214.3 0 171.7 0 128.8 0C86 0 43 0 21.5 0L0 0Z" fill="#304369"></path><path d="M0 132L21.5 125.2C43 118.3 86 104.7 128.8 102.8C171.7 101 214.3 111 257.2 108C300 105 343 89 385.8 83.8C428.7 78.7 471.3 84.3 514.2 86.5C557 88.7 600 87.3 642.8 91C685.7 94.7 728.3 103.3 771.2 101.5C814 99.7 857 87.3 878.5 81.2L900 75L900 0L878.5 0C857 0 814 0 771.2 0C728.3 0 685.7 0 642.8 0C600 0 557 0 514.2 0C471.3 0 428.7 0 385.8 0C343 0 300 0 257.2 0C214.3 0 171.7 0 128.8 0C86 0 43 0 21.5 0L0 0Z" fill="#051636"></path></svg>