<svg id="visual" viewBox="0 0 900 600" width="900" height="600" xmlns="http://www.w3.org/2000/svg" xmlns:xlink="http://www.w3.org/1999/xlink" version="1.1"><path d="M0 497L150 392L300 341L450 493L600 429L750 352L900 359L900 0L750 0L600 0L450 0L300 0L150 0L0 0Z" fill="#051636"></path><path d="M0 399L150 327L300 364L450 419L600 269L750 388L900 393L900 0L750 0L600 0L450 0L300 0L150 0L0 0Z" fill="#0e1f40"></path><path d="M0 249L150 325L300 238L450 276L600 277L750 346L900 318L900 0L750 0L600 0L450 0L300 0L150 0L0 0Z" fill="#17274a"></path><path d="M0 157L150 167L300 180L450 222L600 217L750 188L900 273L900 0L750 0L600 0L450 0L300 0L150 0L0 0Z" fill="#1f3054"></path><path d="M0 158L150 179L300 117L450 170L600 146L750 144L900 144L900 0L750 0L600 0L450 0L300 0L150 0L0 0Z" fill="#283a5e"></path><path d="M0 84L150 115L300 84L450 98L600 67L750 93L900 64L900 0L750 0L600 0L450 0L300 0L150 0L0 0Z" fill="#304369"></path></svg>