<svg id="visual" viewBox="0 0 900 450" width="900" height="450" xmlns="http://www.w3.org/2000/svg" xmlns:xlink="http://www.w3.org/1999/xlink" version="1.1"><path d="M0 150L21.5 139.7C43 129.3 86 108.7 128.8 118.5C171.7 128.3 214.3 168.7 257.2 186.5C300 204.3 343 199.7 385.8 181C428.7 162.3 471.3 129.7 514.2 109.2C557 88.7 600 80.3 642.8 79.7C685.7 79 728.3 86 771.2 99C814 112 857 131 878.5 140.5L900 150L900 451L878.5 451C857 451 814 451 771.2 451C728.3 451 685.7 451 642.8 451C600 451 557 451 514.2 451C471.3 451 428.7 451 385.8 451C343 451 300 451 257.2 451C214.3 451 171.7 451 128.8 451C86 451 43 451 21.5 451L0 451Z" fill="#051636"></path><path d="M0 228L21.5 224C43 220 86 212 128.8 219.3C171.7 226.7 214.3 249.3 257.2 248.5C300 247.7 343 223.3 385.8 222C428.7 220.7 471.3 242.3 514.2 254.7C557 267 600 270 642.8 274.8C685.7 279.7 728.3 286.3 771.2 284.5C814 282.7 857 272.3 878.5 267.2L900 262L900 451L878.5 451C857 451 814 451 771.2 451C728.3 451 685.7 451 642.8 451C600 451 557 451 514.2 451C471.3 451 428.7 451 385.8 451C343 451 300 451 257.2 451C214.3 451 171.7 451 128.8 451C86 451 43 451 21.5 451L0 451Z" fill="#304369"></path><path d="M0 386L21.5 371.3C43 356.7 86 327.3 128.8 319.2C171.7 311 214.3 324 257.2 335.3C300 346.7 343 356.3 385.8 355.3C428.7 354.3 471.3 342.7 514.2 332.8C557 323 600 315 642.8 309.7C685.7 304.3 728.3 301.7 771.2 309.3C814 317 857 335 878.5 344L900 353L900 451L878.5 451C857 451 814 451 771.2 451C728.3 451 685.7 451 642.8 451C600 451 557 451 514.2 451C471.3 451 428.7 451 385.8 451C343 451 300 451 257.2 451C214.3 451 171.7 451 128.8 451C86 451 43 451 21.5 451L0 451Z" fill="#051636"></path></svg>