<svg id="visual" viewBox="0 0 900 450" width="900" height="450" xmlns="http://www.w3.org/2000/svg" xmlns:xlink="http://www.w3.org/1999/xlink" version="1.1"><path d="M0 105L150 171L300 100L450 79L600 199L750 192L900 77L900 451L750 451L600 451L450 451L300 451L150 451L0 451Z" fill="#304369"></path><path d="M0 135L150 153L300 248L450 156L600 226L750 256L900 239L900 451L750 451L600 451L450 451L300 451L150 451L0 451Z" fill="#283a5e"></path><path d="M0 202L150 238L300 294L450 262L600 194L750 195L900 296L900 451L750 451L600 451L450 451L300 451L150 451L0 451Z" fill="#1f3054"></path><path d="M0 260L150 276L300 247L450 311L600 318L750 273L900 313L900 451L750 451L600 451L450 451L300 451L150 451L0 451Z" fill="#17274a"></path><path d="M0 333L150 328L300 331L450 338L600 327L750 298L900 367L900 451L750 451L600 451L450 451L300 451L150 451L0 451Z" fill="#0e1f40"></path><path d="M0 381L150 356L300 360L450 371L600 381L750 381L900 410L900 451L750 451L600 451L450 451L300 451L150 451L0 451Z" fill="#051636"></path></svg>