<svg id="visual" viewBox="0 0 600 900" width="600" height="900" xmlns="http://www.w3.org/2000/svg" xmlns:xlink="http://www.w3.org/1999/xlink" version="1.1"><path d="M0 64L120 163L240 136L360 118L480 163L600 100L600 0L480 0L360 0L240 0L120 0L0 0Z" fill="#051636"></path><path d="M0 208L120 379L240 271L360 289L480 271L600 316L600 98L480 161L360 116L240 134L120 161L0 62Z" fill="#203255"></path><path d="M0 676L120 505L240 415L360 613L480 469L600 658L600 314L480 269L360 287L240 269L120 377L0 206Z" fill="#304369"></path><path d="M0 739L120 631L240 541L360 802L480 640L600 775L600 656L480 467L360 611L240 413L120 503L0 674Z" fill="#203255"></path><path d="M0 901L120 901L240 901L360 901L480 901L600 901L600 773L480 638L360 800L240 539L120 629L0 737Z" fill="#051636"></path></svg>