<svg id="visual" viewBox="0 0 600 900" width="600" height="900" xmlns="http://www.w3.org/2000/svg" xmlns:xlink="http://www.w3.org/1999/xlink" version="1.1"><path d="M563 900L554 870C545 840 527 780 507 720C487 660 465 600 462 540C459 480 475 420 482 360C489 300 487 240 461 180C435 120 385 60 360 30L335 0L600 0L600 30C600 60 600 120 600 180C600 240 600 300 600 360C600 420 600 480 600 540C600 600 600 660 600 720C600 780 600 840 600 870L600 900Z" fill="#304369"></path><path d="M377 900L388 870C399 840 421 780 416 720C411 660 379 600 386 540C393 480 439 420 448 360C457 300 429 240 401 180C373 120 345 60 331 30L317 0L336 0L361 30C386 60 436 120 462 180C488 240 490 300 483 360C476 420 460 480 463 540C466 600 488 660 508 720C528 780 546 840 555 870L564 900Z" fill="#26375c"></path><path d="M359 900L351 870C343 840 327 780 306 720C285 660 259 600 276 540C293 480 353 420 376 360C399 300 385 240 366 180C347 120 323 60 311 30L299 0L318 0L332 30C346 60 374 120 402 180C430 240 458 300 449 360C440 420 394 480 387 540C380 600 412 660 417 720C422 780 400 840 389 870L378 900Z" fill="#1b2c4f"></path><path d="M131 900L160 870C189 840 247 780 228 720C209 660 113 600 68 540C23 480 29 420 72 360C115 300 195 240 228 180C261 120 247 60 240 30L233 0L300 0L312 30C324 60 348 120 367 180C386 240 400 300 377 360C354 420 294 480 277 540C260 600 286 660 307 720C328 780 344 840 352 870L360 900Z" fill="#102142"></path><path d="M0 900L0 870C0 840 0 780 0 720C0 660 0 600 0 540C0 480 0 420 0 360C0 300 0 240 0 180C0 120 0 60 0 30L0 0L234 0L241 30C248 60 262 120 229 180C196 240 116 300 73 360C30 420 24 480 69 540C114 600 210 660 229 720C248 780 190 840 161 870L132 900Z" fill="#051636"></path></svg>