<svg id="visual" viewBox="0 0 900 600" width="900" height="600" xmlns="http://www.w3.org/2000/svg" xmlns:xlink="http://www.w3.org/1999/xlink" version="1.1"><path d="M0 295L37.5 307C75 319 150 343 225 327C300 311 375 255 450 226C525 197 600 195 675 183C750 171 825 149 862.5 138L900 127L900 0L862.5 0C825 0 750 0 675 0C600 0 525 0 450 0C375 0 300 0 225 0C150 0 75 0 37.5 0L0 0Z" fill="#304369"></path><path d="M0 361L37.5 366C75 371 150 381 225 361C300 341 375 291 450 270C525 249 600 257 675 261C750 265 825 265 862.5 265L900 265L900 125L862.5 136C825 147 750 169 675 181C600 193 525 195 450 224C375 253 300 309 225 325C150 341 75 317 37.5 305L0 293Z" fill="#162649"></path><path d="M0 373L37.5 392C75 411 150 449 225 455C300 461 375 435 450 420C525 405 600 401 675 414C750 427 825 457 862.5 472L900 487L900 263L862.5 263C825 263 750 263 675 259C600 255 525 247 450 268C375 289 300 339 225 359C150 379 75 369 37.5 364L0 359Z" fill="#051636"></path><path d="M0 523L37.5 533C75 543 150 563 225 561C300 559 375 535 450 521C525 507 600 503 675 512C750 521 825 543 862.5 554L900 565L900 485L862.5 470C825 455 750 425 675 412C600 399 525 403 450 418C375 433 300 459 225 453C150 447 75 409 37.5 390L0 371Z" fill="#162649"></path><path d="M0 601L37.5 601C75 601 150 601 225 601C300 601 375 601 450 601C525 601 600 601 675 601C750 601 825 601 862.5 601L900 601L900 563L862.5 552C825 541 750 519 675 510C600 501 525 505 450 519C375 533 300 557 225 559C150 561 75 541 37.5 531L0 521Z" fill="#304369"></path></svg>