<svg id="visual" viewBox="0 0 900 600" width="900" height="600" xmlns="http://www.w3.org/2000/svg" xmlns:xlink="http://www.w3.org/1999/xlink" version="1.1"><path d="M0 163L180 205L360 301L540 187L720 145L900 85L900 0L720 0L540 0L360 0L180 0L0 0Z" fill="#051636"></path><path d="M0 271L180 259L360 397L540 313L720 235L900 259L900 83L720 143L540 185L360 299L180 203L0 161Z" fill="#203255"></path><path d="M0 361L180 319L360 463L540 421L720 289L900 331L900 257L720 233L540 311L360 395L180 257L0 269Z" fill="#304369"></path><path d="M0 403L180 451L360 517L540 493L720 349L900 367L900 329L720 287L540 419L360 461L180 317L0 359Z" fill="#203255"></path><path d="M0 601L180 601L360 601L540 601L720 601L900 601L900 365L720 347L540 491L360 515L180 449L0 401Z" fill="#051636"></path></svg>